<?xml version="1.0" encoding="UTF-8"?>
<svg width="981px" height="948px" viewBox="0 0 981 948" version="1.1" xmlns="http://www.w3.org/2000/svg" xmlns:xlink="http://www.w3.org/1999/xlink">
    <!-- Generator: Sketch 49 (51002) - http://www.bohemiancoding.com/sketch -->
    <title>6612b95a55bade50dc4fabbd94bbcbb0</title>
    <desc>Created with Sketch.</desc>
    <defs></defs>
    <g id="Page-1" stroke="none" stroke-width="1" fill="none" fill-rule="evenodd">
        <g id="6612b95a55bade50dc4fabbd94bbcbb0" fill="#808080" fill-rule="nonzero">
            <path d="M618.3,832.3 L114.9,832.3 L114.9,115.7 L618.4,115.7 C629.6,115.7 638.6,106.6 638.6,95.5 L638.6,21 C638.6,9.8 629.5,0.8 618.4,0.8 L20.2,0.8 C9.1,0.8 0,9.8 0,21 L0,927 C0,938.2 9.1,947.2 20.2,947.2 L618.3,947.2 C629.5,947.2 638.5,938.1 638.5,927 L638.5,852.6 C638.6,841.4 629.5,832.3 618.3,832.3 Z" id="Shape"></path>
            <path d="M974.1,459.7 L701.9,187.6 C694.3,180 680.9,180 673.3,187.6 L608.7,252.2 C600.8,260.1 600.8,272.9 608.7,280.8 L731.6,403.7 L199.5,403.7 C188.3,403.7 179.3,412.8 179.3,423.9 L179.3,524.1 C179.3,535.3 188.4,544.3 199.5,544.3 L731.7,544.3 L608.8,667.3 C600.9,675.2 600.9,688 608.8,695.9 L673.4,760.5 C677.2,764.3 682.4,766.4 687.7,766.4 C693.1,766.4 698.2,764.3 702,760.5 L974.2,488.4 C978,484.6 980.1,479.5 980.1,474.1 C980,468.6 977.8,463.5 974.1,459.7 Z" id="Shape"></path>
        </g>
    </g>
</svg>